HIERARCHY
ROOT Hips
{
    OFFSET   0.000000   0.000000   0.000000
    CHANNELS 6 Xposition Yposition Zposition Zrotation Xrotation Yrotation
    JOINT Chest
    {
        OFFSET   0.000000   8.007230   0.000000
        CHANNELS 3 Zrotation Xrotation Yrotation
        JOINT Chest2
        {
            OFFSET   0.000000  22.077100   0.000000
            CHANNELS 3 Zrotation Xrotation Yrotation
            JOINT Neck
            {
                OFFSET   0.000000  23.254800  -0.000021
                CHANNELS 3 Zrotation Xrotation Yrotation
                JOINT Head
                {
                    OFFSET   0.000000  14.370000   1.956610
                    CHANNELS 3 Zrotation Xrotation Yrotation
                    End Site
                    {
                        OFFSET   0.000000  19.566000   0.000000
                    }
                }
            }
            JOINT LeftCollar
            {
                OFFSET   3.911900  19.017000  -0.467063
                CHANNELS 3 Zrotation Xrotation Yrotation
                JOINT LeftShoulder
                {
                    OFFSET  10.383700   0.000000   0.000000
                    CHANNELS 3 Zrotation Xrotation Yrotation
                    JOINT LeftElbow
                    {
                        OFFSET  26.662100   0.001529   0.000325
                        CHANNELS 3 Zrotation Xrotation Yrotation
                        JOINT LeftWrist
                        {
                            OFFSET  28.869000  -0.000011  -0.000096
                            CHANNELS 3 Zrotation Xrotation Yrotation
                            JOINT LeftFinger0
                            {
                                OFFSET   2.044650  -2.323460   3.252850
                                CHANNELS 3 Zrotation Xrotation Yrotation
                                JOINT LeftFinger01
                                {
                                    OFFSET   3.088130   0.000000   0.000000
                                    CHANNELS 3 Zrotation Xrotation Yrotation
                                    JOINT LeftFinger02
                                    {
                                        OFFSET   2.639460   0.000000   0.000000
                                        CHANNELS 3 Zrotation Xrotation Yrotation
                                        End Site
                                        {
                                            OFFSET   2.582190   0.000000   0.000000
                                        }
                                    }
                                }
                            }
                            JOINT LeftFinger1
                            {
                                OFFSET   8.364480   0.000000   3.252850
                                CHANNELS 3 Zrotation Xrotation Yrotation
                                JOINT LeftFinger11
                                {
                                    OFFSET   4.646930   0.000000   0.000000
                                    CHANNELS 3 Zrotation Xrotation Yrotation
                                    JOINT LeftFinger12
                                    {
                                        OFFSET   2.323460   0.000000   0.000000
                                        CHANNELS 3 Zrotation Xrotation Yrotation
                                        End Site
                                        {
                                            OFFSET   2.273050   0.000000   0.000000
                                        }
                                    }
                                }
                            }
                            JOINT LeftFinger2
                            {
                                OFFSET   8.364480   0.000016   1.078090
                                CHANNELS 3 Zrotation Xrotation Yrotation
                                JOINT LeftFinger21
                                {
                                    OFFSET   5.111620   0.000000   0.000000
                                    CHANNELS 3 Zrotation Xrotation Yrotation
                                    JOINT LeftFinger22
                                    {
                                        OFFSET   2.788160   0.000017   0.000000
                                        CHANNELS 3 Zrotation Xrotation Yrotation
                                        End Site
                                        {
                                            OFFSET   2.727660   0.000000   0.000000
                                        }
                                    }
                                }
                            }
                            JOINT LeftFinger3
                            {
                                OFFSET   7.899780   0.000015  -1.078090
                                CHANNELS 3 Zrotation Xrotation Yrotation
                                JOINT LeftFinger31
                                {
                                    OFFSET   4.646920   0.000000   0.000000
                                    CHANNELS 3 Zrotation Xrotation Yrotation
                                    JOINT LeftFinger32
                                    {
                                        OFFSET   2.323470   0.000000   0.000000
                                        CHANNELS 3 Zrotation Xrotation Yrotation
                                        End Site
                                        {
                                            OFFSET   2.273050   0.000000   0.000000
                                        }
                                    }
                                }
                            }
                            JOINT LeftFinger4
                            {
                                OFFSET   7.435090   0.000000  -3.252850
                                CHANNELS 3 Zrotation Xrotation Yrotation
                                JOINT LeftFinger41
                                {
                                    OFFSET   3.717550   0.000000   0.000000
                                    CHANNELS 3 Zrotation Xrotation Yrotation
                                    JOINT LeftFinger42
                                    {
                                        OFFSET   1.858760   0.000000   0.000000
                                        CHANNELS 3 Zrotation Xrotation Yrotation
                                        End Site
                                        {
                                            OFFSET   1.818440   0.000000   0.000000
                                        }
                                    }
                                }
                            }
                        }
                    }
                }
            }
            JOINT RightCollar
            {
                OFFSET  -3.911900  19.017000  -0.467062
                CHANNELS 3 Zrotation Xrotation Yrotation
                JOINT RightShoulder
                {
                    OFFSET -10.383700   0.000015   0.000000
                    CHANNELS 3 Zrotation Xrotation Yrotation
                    JOINT RightElbow
                    {
                        OFFSET -26.662100   0.001341   0.000385
                        CHANNELS 3 Zrotation Xrotation Yrotation
                        JOINT RightWrist
                        {
                            OFFSET -28.869000   0.000025  -0.000080
                            CHANNELS 3 Zrotation Xrotation Yrotation
                            JOINT RightFinger0
                            {
                                OFFSET  -2.044650  -2.323490   3.252850
                                CHANNELS 3 Zrotation Xrotation Yrotation
                                JOINT RightFinger01
                                {
                                    OFFSET  -3.088130   0.000000   0.000000
                                    CHANNELS 3 Zrotation Xrotation Yrotation
                                    JOINT RightFinger02
                                    {
                                        OFFSET  -2.639460   0.000000   0.000000
                                        CHANNELS 3 Zrotation Xrotation Yrotation
                                        End Site
                                        {
                                            OFFSET  -2.582190   0.000000   0.000000
                                        }
                                    }
                                }
                            }
                            JOINT RightFinger1
                            {
                                OFFSET  -8.364480   0.000000   3.252850
                                CHANNELS 3 Zrotation Xrotation Yrotation
                                JOINT RightFinger11
                                {
                                    OFFSET  -4.646930   0.000000   0.000000
                                    CHANNELS 3 Zrotation Xrotation Yrotation
                                    JOINT RightFinger12
                                    {
                                        OFFSET  -2.323470   0.000000   0.000000
                                        CHANNELS 3 Zrotation Xrotation Yrotation
                                        End Site
                                        {
                                            OFFSET  -2.273050   0.000000   0.000000
                                        }
                                    }
                                }
                            }
                            JOINT RightFinger2
                            {
                                OFFSET  -8.364480   0.000000   1.078090
                                CHANNELS 3 Zrotation Xrotation Yrotation
                                JOINT RightFinger21
                                {
                                    OFFSET  -5.111610   0.000000   0.000000
                                    CHANNELS 3 Zrotation Xrotation Yrotation
                                    JOINT RightFinger22
                                    {
                                        OFFSET  -2.788160   0.000000   0.000000
                                        CHANNELS 3 Zrotation Xrotation Yrotation
                                        End Site
                                        {
                                            OFFSET  -2.727660   0.000000   0.000000
                                        }
                                    }
                                }
                            }
                            JOINT RightFinger3
                            {
                                OFFSET  -7.899780   0.000000  -1.078090
                                CHANNELS 3 Zrotation Xrotation Yrotation
                                JOINT RightFinger31
                                {
                                    OFFSET  -4.646920   0.000000   0.000000
                                    CHANNELS 3 Zrotation Xrotation Yrotation
                                    JOINT RightFinger32
                                    {
                                        OFFSET  -2.323470   0.000000   0.000000
                                        CHANNELS 3 Zrotation Xrotation Yrotation
                                        End Site
                                        {
                                            OFFSET  -2.273050   0.000000   0.000000
                                        }
                                    }
                                }
                            }
                            JOINT RightFinger4
                            {
                                OFFSET  -7.435090   0.000000  -3.252850
                                CHANNELS 3 Zrotation Xrotation Yrotation
                                JOINT RightFinger41
                                {
                                    OFFSET  -3.717550   0.000000   0.000000
                                    CHANNELS 3 Zrotation Xrotation Yrotation
                                    JOINT RightFinger42
                                    {
                                        OFFSET  -1.858770   0.000000   0.000000
                                        CHANNELS 3 Zrotation Xrotation Yrotation
                                        End Site
                                        {
                                            OFFSET  -1.818440   0.000000   0.000000
                                        }
                                    }
                                }
                            }
                        }
                    }
                }
            }
        }
    }
    JOINT LeftHip
    {
        OFFSET   9.783010   0.000000   0.000000
        CHANNELS 3 Zrotation Xrotation Yrotation
        JOINT LeftKnee
        {
            OFFSET   0.000070 -41.789100   0.000028
            CHANNELS 3 Zrotation Xrotation Yrotation
            JOINT LeftAnkle
            {
                OFFSET   0.000087 -41.133200  -0.000100
                CHANNELS 3 Zrotation Xrotation Yrotation
                JOINT LeftToe
                {
                    OFFSET   0.000000  -6.358960  14.674500
                    CHANNELS 3 Zrotation Xrotation Yrotation
                    End Site
                    {
                        OFFSET   0.000000   0.000000   3.913200
                    }
                }
            }
        }
    }
    JOINT RightHip
    {
        OFFSET  -9.783020   0.000000   0.000000
        CHANNELS 3 Zrotation Xrotation Yrotation
        JOINT RightKnee
        {
            OFFSET   0.000044 -41.789100  -0.000870
            CHANNELS 3 Zrotation Xrotation Yrotation
            JOINT RightAnkle
            {
                OFFSET  -0.000090 -41.133200  -0.000245
                CHANNELS 3 Zrotation Xrotation Yrotation
                JOINT RightToe
                {
                    OFFSET   0.000000  -6.358960  14.674500
                    CHANNELS 3 Zrotation Xrotation Yrotation
                    End Site
                    {
                        OFFSET   0.000000   0.000000   3.913200
                    }
                }
            }
        }
    }
}
MOTION
Frames: 4
Frame Time:   0.016667
 -0.846195  89.327100   3.817970   3.632320 -11.626600  12.399200   0.564666  12.053200   2.064910   0.696964  24.118900   4.148130  -0.128540  -6.571290  -0.014320  -0.219079 -13.324800  -5.332710 -10.003100  -7.648900   4.946980 -71.792500  14.297800  -6.140130  -0.169272   1.048510 -19.867000   6.845350  -6.170380   2.374060  39.227500  31.708900 -45.891400 -32.030500   0.002895   0.001844 -11.015200   0.001564   0.000974 -33.014700  -1.803290   2.772760 -27.047800   0.001628  -0.003766 -18.933400   0.002406  -0.003141 -28.855900  -3.898830   6.762070 -43.643000   0.009342  -0.000688 -29.066200   0.008714  -0.002828 -27.640300  -5.092320   9.619820 -32.460900   0.003213  -0.002090 -21.619000   0.003461  -0.007217 -29.248100  -6.397570  11.253900 -44.818700   0.001315   0.003675 -29.849600   0.006300  -0.008670   1.737090  -8.168440  10.383500  49.434500 -10.848300  49.367500  -4.974930 -11.471100  22.050900 -63.491600 -76.016200 -55.078900 -45.964500  31.777000  68.030600  14.142800  -0.000989   0.000277   2.071380  -0.003552   0.003805  23.451000  -1.864670  -4.289800  19.244300   0.005220   0.007492  13.471000   0.005990  -0.001280  23.943300  -3.622400  -8.098140  24.199700   0.005003   0.000371  16.117000   0.001816   0.002733  24.927800  -3.761600  -8.034780  25.192100   0.002738   0.010684  16.777900   0.001276   0.001536  24.121800  -4.174600  -9.233390  36.688600   0.001599   0.002203  24.434600   0.003693   0.003795   1.468930  13.180700  -0.905028   1.258680   2.371350   5.457320  -4.802680  -2.626000  -2.932950  -0.000000   0.000000   0.000000  -1.345020  15.709400  -7.236050   0.587487   3.138560 -16.452900   0.618396  -5.897360  -5.146030   0.000000   0.000000   0.000000
 -0.856423  89.324100   3.897710   3.625710 -11.576900  12.377800   0.559274  12.012500   2.054450   0.689761  24.037200   4.127150  -0.138112  -6.542060  -0.015130  -0.235155 -13.265500  -5.308140  -9.992970  -7.623810   4.972020 -71.806000  14.223300  -6.144040  -0.168869   1.119310 -19.925000   6.863310  -6.143360   2.340760  39.221400  31.669700 -45.905600 -32.021000   0.003040   0.001932 -11.010500   0.001561   0.000974 -32.964300  -1.774280   2.735190 -27.005200   0.001577  -0.003752 -18.903700   0.002414  -0.003097 -28.885200  -3.899940   6.753710 -43.686800   0.009303  -0.000724 -29.095400   0.008743  -0.002890 -27.645100  -5.053640   9.546330 -32.449600   0.003197  -0.002097 -21.611400   0.003501  -0.007225 -29.252300  -6.359740  11.187400 -44.813800   0.001346   0.003659 -29.846200   0.006483  -0.008869   1.777130  -8.111230  10.414400  49.709300 -10.972900  49.267900  -4.968420 -11.353400  22.209100 -62.459600 -76.062100 -54.209900 -45.803300  31.662800  68.004100  14.126200  -0.001003   0.000281   2.063090  -0.003671   0.003770  23.507100  -1.861550  -4.274520  19.289900   0.005214   0.007589  13.502900   0.005991  -0.001269  24.013500  -3.634650  -8.094510  24.270600   0.005059   0.000436  16.164200   0.001839   0.002748  25.049600  -3.781080  -8.028360  25.313600   0.002890   0.010785  16.858800   0.001223   0.001615  24.272400  -4.164440  -9.161460  36.909700   0.001698   0.002281  24.581900   0.003800   0.003794   1.472530  13.185500  -0.907408   1.262220   2.382450   5.470060  -4.809670  -2.685510  -2.925900   0.000000   0.000000  -0.000000  -1.358260  15.688600  -7.226800   0.607352   3.172220 -16.451400   0.613481  -5.951350  -5.138330  -0.000000   0.000000   0.000000
 -0.865282  89.321300   3.975450   3.613430 -11.530000  12.355000   0.556101  11.970000   2.043170   0.687392  23.952100   4.103950  -0.145764  -6.511660  -0.015927  -0.248250 -13.203900  -5.289970  -9.982650  -7.600630   4.994620 -71.817800  14.159400  -6.155550  -0.183920   1.188690 -19.987500   6.900680  -6.094800   2.306420  39.185200  31.597100 -45.899700 -32.017200   0.003182   0.002024 -11.008600   0.001558   0.000975 -32.912900  -1.755830   2.710120 -26.962700   0.001527  -0.003741 -18.873900   0.002423  -0.003057 -28.923100  -3.903430   6.742980 -43.743500   0.009264  -0.000761 -29.133200   0.008773  -0.002955 -27.648000  -5.027490   9.496770 -32.438300   0.003182  -0.002109 -21.603900   0.003542  -0.007233 -29.252000  -6.344870  11.162000 -44.808900   0.001375   0.003636 -29.842800   0.006662  -0.009060   1.825690  -8.055630  10.455600  49.961300 -11.090000  49.118600  -4.941820 -11.285200  22.381200 -61.194100 -76.118400 -53.100000 -45.618200  31.553800  67.973300  14.100200  -0.001018   0.000291   2.050140  -0.003789   0.003736  23.563100  -1.851300  -4.236890  19.335000   0.005208   0.007684  13.534500   0.005992  -0.001259  24.104200  -3.644390  -8.086260  24.361900   0.005116   0.000507  16.225000   0.001865   0.002762  25.197000  -3.798530  -8.015280  25.463300   0.003048   0.010884  16.958500   0.001170   0.001696  24.465400  -4.135820  -9.008510  37.187100   0.001796   0.002358  24.766700   0.003910   0.003792   1.482120  13.187700  -0.911758   1.261790   2.398370   5.489070  -4.814220  -2.747790  -2.920950   0.000000   0.000000  -0.000000  -1.368190  15.673600  -7.222680   0.621844   3.203040 -16.449700   0.609792  -6.000320  -5.130590  -0.000000   0.000000  -0.000000
 -0.870649  89.318900   4.052610   3.599360 -11.490400  12.332600   0.554477  11.926100   2.033840   0.687823  23.864400   4.084410  -0.148109  -6.472830  -0.016728  -0.252232 -13.125100  -5.285270  -9.975760  -7.577350   5.004360 -71.823100  14.116900  -6.173320  -0.199151   1.237590 -20.042800   6.953760  -6.035930   2.274350  39.161900  31.538500 -45.906300 -32.048500   0.003318   0.002117 -11.024200   0.001561   0.000978 -32.917100  -1.754960   2.705660 -26.966000   0.001479  -0.003730 -18.876300   0.002434  -0.003022 -28.955700  -3.911880   6.733830 -43.793300   0.009227  -0.000797 -29.166400   0.008805  -0.003027 -27.651100  -5.038470   9.515790 -32.469500   0.003170  -0.002119 -21.624700   0.003584  -0.007244 -29.264400  -6.347310  11.161900 -44.830200   0.001399   0.003608 -29.857000   0.006836  -0.009243   1.889730  -8.003140  10.508600  50.146000 -11.174600  48.894400  -4.883160 -11.329600  22.557100 -59.688900 -76.202900 -51.697900 -45.583300  31.578200  68.051400  14.079600  -0.001049   0.000346   2.039820  -0.003895   0.003702  23.625400  -1.826660  -4.173130  19.384300   0.005208   0.007793  13.569000   0.005993  -0.001259  24.218800  -3.655180  -8.071740  24.476400   0.005178   0.000594  16.301300   0.001881   0.002769  25.358700  -3.815490  -7.995470  25.656400   0.003222   0.010986  17.087100   0.001111   0.001782  24.696800  -4.081080  -8.798210  37.516500   0.001885   0.002426  24.986100   0.004034   0.003791   1.500580  13.190400  -0.917316   1.256890   2.420930   5.501510  -4.817330  -2.813410  -2.909580   0.000000   0.000000   0.000000  -1.380170  15.679500  -7.270290   0.638705   3.218060 -16.375900   0.612911  -6.045790  -5.138160  -0.000000   0.000000   0.000000
